PathFileType	4	(X/Y/Z)	34_1_22_p0_0-948_filt_butterworth.trc
DataRate	CameraRate	NumFrames	NumMarkers	Units	OrigDataRate	OrigDataStartFrame	OrigNumFrames
52.0	52.0	6	27	m	52.0	592	948
Frame#	Time	RHip			RKnee			RAnkle			RBigToe			RSmallToe			RHeel			LHip			LKnee			LAnkle			LBigToe			LSmallToe			LHeel			Neck			Head			Nose			RShoulder			RElbow			RWrist			RThumb			RIndex			RPinky			LShoulder			LElbow			LWrist			LThumb			LIndex			LPinky			
		X1	Y1	Z1	X2	Y2	Z2	X3	Y3	Z3	X4	Y4	Z4	X5	Y5	Z5	X6	Y6	Z6	X7	Y7	Z7	X8	Y8	Z8	X9	Y9	Z9	X10	Y10	Z10	X11	Y11	Z11	X12	Y12	Z12	X13	Y13	Z13	X14	Y14	Z14	X15	Y15	Z15	X16	Y16	Z16	X17	Y17	Z17	X18	Y18	Z18	X19	Y19	Z19	X20	Y20	Z20	X21	Y21	Z21	X22	Y22	Z22	X23	Y23	Z23	X24	Y24	Z24	X25	Y25	Z25	X26	Y26	Z26	X27	Y27	Z27	
592	11.384615384615383	0.36800014246821394	0.43381956418932527	1.0305453614143611	0.3617018786475701	0.5728608912624211	1.3871847205469547	0.37763421862582147	0.704578335987725	1.733817906870462	0.3430676130431504	0.5393309301977242	1.7708094775028393	0.4183446961107864	0.5682982278254074	1.7778286028613561	0.35570322775240104	0.8146060085646647	1.8055912459965524	0.17586292534584436	0.47047765632169636	1.0364166012556866	0.1753651621747076	0.6405069310043251	1.4213700699586298	0.1789305465856236	0.7482014272274007	1.763399778024581	0.18853887932136568	0.5416865642062794	1.758682470298601	0.1392331259502711	0.5989559236766955	1.7677087409012944	0.18990649014754607	0.7797337538122552	1.7967008178045445	0.26456636757404145	0.42422484697089236	0.5534336542466406	0.2698398730490967	0.2766711962430206	0.3342108727614239	0.2595491145122232	0.2569172193791847	0.45912951232410126	0.41034765203749823	0.4004612169653851	0.6217861972257289	0.4524920163924763	0.44113955542441013	0.8256791817091031	0.37054706449071234	0.2761579730229323	0.8926506339980852	0.27954212920680344	0.15007340241800654	0.8753526050679356	0.28234379051792924	0.13699221926316973	0.89659789287549	0.3226091114113169	0.1872716380419325	0.9408850128835159	0.11678947353047411	0.4094215817058767	0.6277625618604409	0.07612489139577192	0.47546397434170995	0.8310982378872366	0.15090517952729435	0.27816146455646196	0.8798960551072981	0.19548717280197925	0.1497520437080554	0.8688845695012626	0.18609859888469105	0.13477224194287576	0.8925099435053625	0.18120022445581627	0.17325425361452365	0.9416089371964608
593	11.403846153846152	0.3691811373260063	0.4298649092447607	1.0296924683904483	0.36270671361373086	0.5765665594418298	1.3880695263151541	0.3776366824928691	0.7045316297807747	1.733782020786458	0.3430881240323312	0.5393213796718137	1.77081197816489	0.4183861851051977	0.5682561208117802	1.777831175266189	0.3556819361569177	0.8146581498126251	1.8055810530157155	0.17559818189605553	0.4706794685327564	1.0365542672847026	0.17574391035783096	0.6405431247819526	1.4202755708755963	0.17874109190275658	0.7481307181630212	1.7630549543755802	0.1885214660149967	0.5415905983526929	1.7586349051780434	0.139223205788177	0.5988545256980639	1.767654154216988	0.1899449935435634	0.7796825023463361	1.7966313929574078	0.2645311191420886	0.42432559529026265	0.5534496107599569	0.2697904670282912	0.2764848916153052	0.3328033493460627	0.2595815710635058	0.25692039171298486	0.4591468789956044	0.41147821982017485	0.4011616442286686	0.6207389470094169	0.452585172954891	0.4408984816095024	0.8258342173149177	0.3693191846048371	0.2711441035332069	0.8891198824079721	0.27906399168167545	0.15160907382782468	0.8683569546427397	0.27980440285730335	0.14095255013218813	0.8865819828281299	0.3214022799155523	0.19561978433942498	0.9382511207077591	0.11678835713350533	0.4095560060359979	0.6276813158927544	0.07694623503934342	0.47332453670827335	0.8292751923380728	0.15092864177905027	0.2774642472279284	0.8775191321742944	0.19474261120463054	0.14983532031928523	0.8659864373963113	0.18427178819945222	0.1347820740458814	0.8890213234588882	0.18106540773786822	0.17298230802215442	0.9414452735746937
594	11.423076923076923	0.3694655045422968	0.42895144099535204	1.0284744423764134	0.36412150516378994	0.581785271158212	1.3892810497949182	0.3776424002625575	0.7045116068693551	1.73375574131595	0.34312103978478214	0.539296191269974	1.7708239396664178	0.41845713521757877	0.5682368624382143	1.7778431870863929	0.3556669334881711	0.8148039905581852	1.805571321418184	0.17545761381579936	0.4707736378287604	1.0362596964196484	0.17700016687292225	0.6408587741818377	1.4186541856247594	0.17928077241904192	0.7481399420139514	1.7626954617084882	0.1885384609328007	0.541655477813935	1.7586589551180027	0.13922596671779927	0.5987291369561132	1.7676030066776456	0.18997362250450395	0.7796676821832418	1.796611491288243	0.2644915430953789	0.4243521436440932	0.5534704220669475	0.26973254480516873	0.27621948034309085	0.3318137853521373	0.2595990057519369	0.2569045603517971	0.45918385919822396	0.41173906388085485	0.40179413961527444	0.6192953251014972	0.4527605832544293	0.4414964472860088	0.8256498286275831	0.36778780653516574	0.2677916093069575	0.8847003538222777	0.27964550229229646	0.15476512385949043	0.8631882758588998	0.2779527565274014	0.14395983818560149	0.8776527295233205	0.32110308981718366	0.20449082052383522	0.9345257235517852	0.11680693931452746	0.409683888537446	0.6276211075029258	0.07967441645664754	0.46780754966284543	0.8273068231337481	0.1507349112133951	0.2764299976505633	0.875137948569422	0.19605516727891006	0.15107527392622466	0.8639336543948546	0.18387185981715856	0.13475364024065875	0.8855941291304728	0.18096187209319647	0.17261794347240378	0.941358679275723
595	11.442307692307692	0.3692950191987521	0.42959948673972437	1.02696893039107	0.365130822016356	0.5854577687757887	1.390076542136441	0.377654219130274	0.7045133529630733	1.7337317716944516	0.3431508761277175	0.5393192590146267	1.7708520727938573	0.4185267968959528	0.5682415435414092	1.7778561306344682	0.3556613035916214	0.8150273196081195	1.8055598945912135	0.17550960991261005	0.4707862646641537	1.0350966081673532	0.17891617627474818	0.6411256574756415	1.4174881218233932	0.18061151779669124	0.7481906986144153	1.762552312367934	0.18856747830003354	0.5417025291408273	1.7586417973434394	0.13924590708345658	0.5986444340617617	1.7675881258689572	0.19001278092127738	0.7796758121861149	1.7966409899538935	0.2644822652076596	0.4243325482776253	0.5534779472890203	0.2697267549737126	0.2761162411890329	0.33153272372497794	0.2596459202906754	0.25688625608505117	0.45922040393826113	0.41159488767078733	0.4020845204377205	0.6182745606524674	0.45297368913547886	0.44271837865847313	0.8248483021569639	0.3668832186163091	0.2665272968841336	0.8808697245594634	0.28172085709010247	0.15908819771297247	0.8609429755015472	0.27811905492591027	0.1468039160637562	0.8721973198589945	0.3215837826717788	0.21017645840197033	0.9307153857840239	0.11683784224887092	0.40975204579019864	0.6276006698329905	0.08347943126524415	0.4618095735457729	0.826916460062565	0.15057919919152754	0.27545261290357337	0.8742638079213048	0.19793733403511526	0.1542132901542687	0.8631304599096964	0.18446218539648113	0.1342633029197028	0.8815194035573231	0.18102145939780434	0.17234265254989647	0.9412794868338408
596	11.461538461538462	0.3691353109183931	0.43019386872039955	1.0258560287246212	0.3654491813264341	0.5865553020150166	1.3902582162183723	0.3776683162885172	0.7045159294649936	1.7337188881165924	0.34316913683714295	0.539403405472443	1.7708832674567285	0.41856563152619286	0.5682580217302291	1.7778650776357612	0.355668082103751	0.8151202854628977	1.8055628320057577	0.17556689118512014	0.4708004087848164	1.0333812065855197	0.18051075395439178	0.6410662365489046	1.4174871368288129	0.18180068138869007	0.7482116444102064	1.7625908507895385	0.1885876292014776	0.5416698094136986	1.7585868437165413	0.13927076977175187	0.5986091375097783	1.7675955199699174	0.19005303114336497	0.7796894029988908	1.7966893793071814	0.26447581993044034	0.4244155867313588	0.5534765085934763	0.2697054179745359	0.2760934145763953	0.33159883142530877	0.2596621011842025	0.2569281442805166	0.45926605530920905	0.4114804131519164	0.4020911768657038	0.6179676873196349	0.45307340947994845	0.4437542205027657	0.8238759856919714	0.3667847930500635	0.26493743382704754	0.8777757534090588	0.2843152351038033	0.16268392959501426	0.8598627947137746	0.2800135365078862	0.1507658270459458	0.8692949227032987	0.32223106584565503	0.21274680240933563	0.9278903870111017	0.11684149073474728	0.4096474386480752	0.6276085496505579	0.08634823990063817	0.4593713258673405	0.8292192545848832	0.15074006350358396	0.27559474923233124	0.8751199964210228	0.19820420718751536	0.15820282450875228	0.8630176925746387	0.18490901235788523	0.1334194860304035	0.8772645820392163	0.1811178500640706	0.1721681701908095	0.9409383491773149
597	11.48076923076923	0.3690842426781102	0.43033661919531974	1.0254811806677826	0.36546384527664305	0.5865988936154279	1.3902367916149287	0.377683692458203	0.7044964519638364	1.7337056477187185	0.3431720813355474	0.5394922394231852	1.7709052992297538	0.41856622840458535	0.568249723468751	1.7778585853683238	0.35568600316689913	0.8149325439143673	1.8055676844578354	0.17545529408391192	0.4707844154968037	1.032071388997939	0.1810806251930419	0.6408460162448846	1.41863960756641	0.18222462059847624	0.7482068635276763	1.7626583684742363	0.18858901702552186	0.5415958680789672	1.7585412090492154	0.13928692794555525	0.5985678591159509	1.7675894192368222	0.19007213164228293	0.7797070011539171	1.7967226340488243	0.2644112226434632	0.4247085212993782	0.5534846672186355	0.26963880426825915	0.27609066389866094	0.33165206816735815	0.25931420061291044	0.257071655052516	0.4593354993772342	0.4114730487687846	0.4020205555377301	0.6180288075784082	0.452987529641358	0.44421637999503105	0.823716337004833	0.3668160128009581	0.26093861737419893	0.8748388809231717	0.28597177152487135	0.16408832576859916	0.8586479671398086	0.2821540425892085	0.15423091867114144	0.8676779926624735	0.32256644395322165	0.21366734962698977	0.9262697413960499	0.11678253466608317	0.4092562188447722	0.6276331246215702	0.08736031478054386	0.46041775654579226	0.8329016842074737	0.15140586909317455	0.27814613554525663	0.8763291643390374	0.19749670636257868	0.16076663425876464	0.8629917593632789	0.18497894739466478	0.132738374547087	0.874184411986346	0.18116507656213765	0.1726693747389823	0.9401545343775202
